<svg width="96" height="96" viewBox="0 0 96 96" fill="none" xmlns="http://www.w3.org/2000/svg" role="img" aria-label="Nong Piew Dee logomark">
  <defs>
    <linearGradient id="npd-mark" x1="14" y1="10" x2="80" y2="86" gradientUnits="userSpaceOnUse">
      <stop stop-color="#34ABA2"></stop>
      <stop offset="1" stop-color="#0C7A72"></stop>
    </linearGradient>
  </defs>
  
  <path d="M30 12h36c10.5 0 18 7.8 18 18.4v22.5c0 10.6-7.5 18.4-18 18.4H51.2l-13.4 11.6c-2.7 2.3-6.8.4-6.8-3.1V71.7H30c-10.5 0-18-7.8-18-18.4V30.4C12 19.8 19.5 12 30 12Z" fill="url(#npd-mark)"></path>
  
  <path d="M27 44.5h9.5l4.7-12.2 8.2 22 5.6-13.4 3.6 8.1h7.4" stroke="#FFFFFF" stroke-width="4.6" stroke-linecap="round" stroke-linejoin="round"></path>
  
  <circle cx="69" cy="49" r="3.1" fill="#7FD9B0"></circle>
</svg>